<svg xmlns="http://www.w3.org/2000/svg" width="72" height="77" viewBox="0 0 72 77"><g><g><path d="M72 60.085c0 3.714-2.092 7.043-5.46 8.688l-6.63 3.24A14.331 14.331 0 0 1 49.026 77h-9.294c-7.882 0-14.294-6.338-14.294-14.13V51.515c0-.718.59-1.3 1.316-1.3h35.25c.727 0 1.316.582 1.316 1.3v2.86h2.904c3.185 0 5.777 2.562 5.777 5.71zm-11.312-1.154h-32.62v1.214h32.62zm-32.62-6.116v3.516h32.62v-3.516zm32.62 10.055v-.124h-32.62v.124c0 6.357 5.232 11.53 11.663 11.53h9.294c6.43 0 11.663-5.172 11.663-11.53zm8.68-2.785c.001-1.714-1.41-3.109-3.145-3.109H63.32v5.894c0 1.774-.336 3.471-.942 5.037l2.998-1.465c2.463-1.204 3.994-3.64 3.994-6.357zM25.844 70.287c0 .719-.59 1.3-1.316 1.3H1.316A1.308 1.308 0 0 1 0 70.288V11.255c0-.718.59-1.3 1.316-1.3h42.152c.726 0 1.315.582 1.315 1.3v35.259c0 .718-.589 1.3-1.315 1.3a1.308 1.308 0 0 1-1.316-1.3V12.555H2.631v56.432h21.896c.726 0 1.316.582 1.316 1.3zM20.78 27.218c0 .718-.59 1.3-1.316 1.3H7.463a1.308 1.308 0 0 1-1.316-1.3v-9.886c0-.718.59-1.3 1.316-1.3h12.001c.727 0 1.316.582 1.316 1.3zm-2.631-8.586h-9.37v7.286h9.37zm2.63 13.99c0 .717-.588 1.3-1.315 1.3H7.463a1.308 1.308 0 0 1-1.316-1.3c0-.719.59-1.301 1.316-1.301h12.001c.727 0 1.316.582 1.316 1.3zm0 5.12c0 .718-.588 1.3-1.315 1.3H7.463a1.308 1.308 0 0 1-1.316-1.3c0-.719.59-1.3 1.316-1.3h12.001c.727 0 1.316.581 1.316 1.3zm0 5.12c0 .718-.588 1.3-1.315 1.3H7.463a1.308 1.308 0 0 1-1.316-1.3c0-.719.59-1.3 1.316-1.3h12.001c.727 0 1.316.581 1.316 1.3zm0 5.12c0 .718-.588 1.3-1.315 1.3H7.463a1.308 1.308 0 0 1-1.316-1.3c0-.718.59-1.3 1.316-1.3h12.001c.727 0 1.316.582 1.316 1.3zm0 5.12c0 .718-.588 1.3-1.315 1.3H7.463a1.308 1.308 0 0 1-1.316-1.3c0-.718.59-1.3 1.316-1.3h12.001c.727 0 1.316.582 1.316 1.3zm0 5.12c0 .718-.588 1.3-1.315 1.3H7.463a1.308 1.308 0 0 1-1.316-1.3c0-.718.59-1.3 1.316-1.3h12.001c.727 0 1.316.582 1.316 1.3zm0 5.12c0 .718-.588 1.3-1.315 1.3H7.463a1.308 1.308 0 0 1-1.316-1.3c0-.718.59-1.3 1.316-1.3h12.001c.727 0 1.316.582 1.316 1.3zm17.857-46.01c0 .718-.59 1.3-1.316 1.3H25.32a1.308 1.308 0 0 1-1.316-1.3c0-.718.59-1.3 1.316-1.3H37.32c.727 0 1.316.582 1.316 1.3zm0 5.12c0 .718-.59 1.3-1.316 1.3H25.32a1.308 1.308 0 0 1-1.316-1.3c0-.718.59-1.3 1.316-1.3H37.32c.727 0 1.316.582 1.316 1.3zm0 5.12c0 .718-.59 1.3-1.316 1.3H25.32a1.308 1.308 0 0 1-1.316-1.3c0-.718.59-1.3 1.316-1.3H37.32c.727 0 1.316.582 1.316 1.3zm0 5.12c0 .719-.59 1.3-1.316 1.3H25.32a1.308 1.308 0 0 1-1.316-1.3c0-.718.59-1.3 1.316-1.3H37.32c.727 0 1.316.582 1.316 1.3zm0 5.394v8.428c0 .718-.59 1.3-1.316 1.3H25.32a1.308 1.308 0 0 1-1.316-1.3v-8.428c0-.719.59-1.3 1.316-1.3H37.32c.727 0 1.316.581 1.316 1.3zm-2.63 1.3h-9.372v5.827h9.371zm4.8-33.552C43.366 2.18 47.573 0 52.062 0c7.543 0 13.68 6.066 13.68 13.523 0 7.456-6.137 13.522-13.68 13.522-1.846 0-3.638-.357-5.325-1.063a1.295 1.295 0 0 1-.7-1.704 1.32 1.32 0 0 1 1.725-.69c1.361.568 2.808.857 4.3.857 6.092 0 11.049-4.9 11.049-10.922C63.11 7.5 58.153 2.6 52.06 2.6a11.099 11.099 0 0 0-9.091 4.713 1.325 1.325 0 0 1-1.83.329 1.291 1.291 0 0 1-.333-1.81zm5.515 7.689c0-.718.589-1.3 1.315-1.3h3.11V9.344c0-.718.589-1.3 1.315-1.3.727 0 1.316.582 1.316 1.3v4.178c0 .718-.59 1.3-1.316 1.3h-4.425a1.308 1.308 0 0 1-1.315-1.3z"/></g></g></svg>